<svg width="97" height="17" viewBox="0 0 97 17" fill="none" xmlns="http://www.w3.org/2000/svg">
<path d="M14.475 1.395C15.315 1.395 16.02 1.565 16.59 1.905C17.16 2.245 17.62 2.69 17.97 3.24C18.32 3.79 18.57 4.415 18.72 5.115C18.87 5.815 18.945 6.525 18.945 7.245V12H16.905V7.245C16.905 6.835 16.875 6.41 16.815 5.97C16.755 5.52 16.635 5.11 16.455 4.74C16.285 4.36 16.04 4.05 15.72 3.81C15.41 3.56 14.995 3.435 14.475 3.435C13.935 3.435 13.49 3.605 13.14 3.945C12.79 4.275 12.51 4.705 12.3 5.235C12.1 5.755 11.955 6.34 11.865 6.99C11.775 7.64 11.715 8.285 11.685 8.925C11.665 9.555 11.66 10.145 11.67 10.695C11.69 11.235 11.7 11.67 11.7 12H9.675V7.245C9.675 6.835 9.645 6.41 9.585 5.97C9.525 5.52 9.405 5.11 9.225 4.74C9.055 4.36 8.81 4.05 8.49 3.81C8.17 3.56 7.75 3.435 7.23 3.435C6.8 3.435 6.395 3.535 6.015 3.735C5.645 3.935 5.31 4.18 5.01 4.47C5.27 4.77 5.52 5.09 5.76 5.43C6.01 5.77 6.23 6.125 6.42 6.495C6.61 6.865 6.76 7.25 6.87 7.65C6.98 8.04 7.035 8.44 7.035 8.85C7.035 9.29 6.965 9.715 6.825 10.125C6.695 10.525 6.5 10.88 6.24 11.19C5.98 11.49 5.665 11.735 5.295 11.925C4.925 12.105 4.505 12.195 4.035 12.195C3.565 12.195 3.145 12.105 2.775 11.925C2.405 11.735 2.09 11.49 1.83 11.19C1.57 10.88 1.37 10.525 1.23 10.125C1.1 9.715 1.035 9.29 1.035 8.85C1.035 8.13 1.155 7.405 1.395 6.675C1.635 5.945 1.94 5.27 2.31 4.65C1.97 4.35 1.62 4.06 1.26 3.78C0.91 3.5 0.545 3.235 0.165 2.985L1.26 1.275C1.67 1.535 2.065 1.815 2.445 2.115C2.835 2.405 3.21 2.71 3.57 3.03C4.07 2.54 4.625 2.145 5.235 1.845C5.855 1.545 6.52 1.395 7.23 1.395C8.04 1.395 8.755 1.575 9.375 1.935C9.995 2.295 10.5 2.825 10.89 3.525C11.29 2.855 11.785 2.335 12.375 1.965C12.975 1.585 13.675 1.395 14.475 1.395ZM4.035 10.155C4.215 10.155 4.365 10.115 4.485 10.035C4.605 9.955 4.7 9.855 4.77 9.735C4.85 9.605 4.905 9.465 4.935 9.315C4.975 9.155 4.995 9 4.995 8.85C4.995 8.61 4.96 8.37 4.89 8.13C4.82 7.89 4.725 7.66 4.605 7.44C4.495 7.21 4.37 6.99 4.23 6.78C4.09 6.57 3.945 6.375 3.795 6.195C3.585 6.595 3.41 7.025 3.27 7.485C3.14 7.945 3.075 8.4 3.075 8.85C3.075 9 3.09 9.155 3.12 9.315C3.16 9.465 3.215 9.605 3.285 9.735C3.365 9.855 3.465 9.955 3.585 10.035C3.705 10.115 3.855 10.155 4.035 10.155ZM26.9468 3.12H28.9718V12H26.9468V11.13C26.6168 11.51 26.2318 11.785 25.7918 11.955C25.3518 12.115 24.8818 12.195 24.3818 12.195C23.7118 12.195 23.1168 12.075 22.5968 11.835C22.0868 11.585 21.6568 11.25 21.3068 10.83C20.9568 10.4 20.6918 9.905 20.5118 9.345C20.3318 8.785 20.2418 8.19 20.2418 7.56C20.2418 6.93 20.3318 6.335 20.5118 5.775C20.6918 5.215 20.9568 4.725 21.3068 4.305C21.6568 3.885 22.0868 3.555 22.5968 3.315C23.1168 3.065 23.7118 2.94 24.3818 2.94C24.8818 2.94 25.3518 3.02 25.7918 3.18C26.2318 3.34 26.6168 3.61 26.9468 3.99V3.12ZM24.6068 10.47C25.0168 10.47 25.3668 10.39 25.6568 10.23C25.9568 10.06 26.2018 9.84 26.3918 9.57C26.5818 9.29 26.7218 8.975 26.8118 8.625C26.9018 8.275 26.9468 7.92 26.9468 7.56C26.9468 7.2 26.9018 6.845 26.8118 6.495C26.7218 6.145 26.5818 5.835 26.3918 5.565C26.2018 5.295 25.9568 5.08 25.6568 4.92C25.3668 4.75 25.0168 4.665 24.6068 4.665C24.1968 4.665 23.8418 4.75 23.5418 4.92C23.2518 5.08 23.0118 5.295 22.8218 5.565C22.6418 5.835 22.5068 6.145 22.4168 6.495C22.3268 6.845 22.2818 7.2 22.2818 7.56C22.2818 7.92 22.3268 8.275 22.4168 8.625C22.5068 8.975 22.6418 9.29 22.8218 9.57C23.0118 9.84 23.2518 10.06 23.5418 10.23C23.8418 10.39 24.1968 10.47 24.6068 10.47ZM39.0063 3.135V10.92C39.0063 11.6 38.8763 12.175 38.6163 12.645C38.3563 13.115 38.0063 13.495 37.5663 13.785C37.1363 14.075 36.6413 14.285 36.0813 14.415C35.5213 14.545 34.9413 14.61 34.3413 14.61C33.6813 14.61 33.0163 14.535 32.3463 14.385C31.6763 14.245 31.0663 13.99 30.5163 13.62L31.2513 12.12C31.4313 12.25 31.6363 12.365 31.8663 12.465C32.1063 12.575 32.3513 12.665 32.6013 12.735C32.8613 12.805 33.1163 12.86 33.3663 12.9C33.6263 12.94 33.8663 12.96 34.0863 12.96C34.4063 12.96 34.7363 12.925 35.0763 12.855C35.4163 12.795 35.7263 12.685 36.0063 12.525C36.2963 12.365 36.5313 12.155 36.7113 11.895C36.8913 11.635 36.9813 11.31 36.9813 10.92V10.74C36.6513 11.11 36.2613 11.37 35.8113 11.52C35.3613 11.67 34.8963 11.745 34.4163 11.745C33.7663 11.745 33.1863 11.635 32.6763 11.415C32.1663 11.185 31.7313 10.875 31.3713 10.485C31.0213 10.085 30.7513 9.62 30.5613 9.09C30.3713 8.55 30.2763 7.97 30.2763 7.35C30.2763 6.72 30.3713 6.14 30.5613 5.61C30.7513 5.07 31.0213 4.605 31.3713 4.215C31.7313 3.815 32.1663 3.505 32.6763 3.285C33.1863 3.055 33.7663 2.94 34.4163 2.94C34.8963 2.94 35.3613 3.015 35.8113 3.165C36.2613 3.315 36.6513 3.575 36.9813 3.945V3.135H39.0063ZM34.6413 10.11C35.0413 10.11 35.3863 10.035 35.6763 9.885C35.9663 9.725 36.2063 9.52 36.3963 9.27C36.5963 9.01 36.7413 8.715 36.8313 8.385C36.9313 8.055 36.9813 7.71 36.9813 7.35C36.9813 6.99 36.9313 6.645 36.8313 6.315C36.7413 5.975 36.5963 5.68 36.3963 5.43C36.2063 5.17 35.9663 4.965 35.6763 4.815C35.3863 4.655 35.0413 4.575 34.6413 4.575C34.2413 4.575 33.8963 4.655 33.6063 4.815C33.3163 4.965 33.0763 5.17 32.8863 5.43C32.6963 5.68 32.5513 5.975 32.4513 6.315C32.3613 6.645 32.3163 6.99 32.3163 7.35C32.3163 7.71 32.3613 8.055 32.4513 8.385C32.5513 8.715 32.6963 9.01 32.8863 9.27C33.0763 9.52 33.3163 9.725 33.6063 9.885C33.8963 10.035 34.2413 10.11 34.6413 10.11ZM41.5405 2.52C41.1705 2.52 40.8755 2.41 40.6555 2.19C40.4455 1.96 40.3405 1.685 40.3405 1.365C40.3405 1.045 40.4455 0.774999 40.6555 0.555C40.8755 0.325 41.1705 0.21 41.5405 0.21C41.9105 0.21 42.2005 0.325 42.4105 0.555C42.6305 0.774999 42.7405 1.045 42.7405 1.365C42.7405 1.685 42.6305 1.96 42.4105 2.19C42.2005 2.41 41.9105 2.52 41.5405 2.52ZM40.5205 12V3.12H42.5605V12H40.5205ZM48.2351 4.665C47.8451 4.665 47.5051 4.74 47.2151 4.89C46.9251 5.04 46.6801 5.25 46.4801 5.52C46.2901 5.78 46.1451 6.085 46.0451 6.435C45.9451 6.785 45.8951 7.16 45.8951 7.56C45.8951 7.96 45.9451 8.34 46.0451 8.7C46.1451 9.05 46.2901 9.355 46.4801 9.615C46.6801 9.875 46.9251 10.085 47.2151 10.245C47.5051 10.395 47.8451 10.47 48.2351 10.47C48.8251 10.47 49.3151 10.33 49.7051 10.05C50.1051 9.76 50.4051 9.36 50.6051 8.85L52.1501 9.675C51.8201 10.425 51.3201 11.035 50.6501 11.505C49.9801 11.965 49.1751 12.195 48.2351 12.195C47.5651 12.195 46.9601 12.075 46.4201 11.835C45.8801 11.585 45.4201 11.25 45.0401 10.83C44.6601 10.41 44.3651 9.92 44.1551 9.36C43.9551 8.8 43.8551 8.2 43.8551 7.56C43.8551 6.92 43.9551 6.32 44.1551 5.76C44.3651 5.2 44.6601 4.71 45.0401 4.29C45.4201 3.87 45.8801 3.54 46.4201 3.3C46.9601 3.06 47.5651 2.94 48.2351 2.94C49.1751 2.94 49.9801 3.175 50.6501 3.645C51.3201 4.105 51.8201 4.71 52.1501 5.46L50.6051 6.285C50.4051 5.775 50.1051 5.38 49.7051 5.1C49.3151 4.81 48.8251 4.665 48.2351 4.665Z" fill="#FF0101"/>
<path d="M57.068 12.156C55.952 12.156 55.388 11.688 55.052 10.98V12H53.48V3.24H55.1V6.72C55.436 6.06 56 5.628 57.068 5.628C58.784 5.628 60.152 7.104 60.152 8.904C60.152 10.704 58.784 12.156 57.068 12.156ZM55.052 8.904C55.052 9.876 55.736 10.692 56.804 10.692C57.836 10.692 58.532 9.84 58.532 8.892C58.532 7.92 57.836 7.092 56.804 7.092C55.736 7.092 55.052 7.932 55.052 8.904ZM63.6599 12.156C61.9439 12.156 60.5759 10.704 60.5759 8.904C60.5759 7.104 61.9439 5.628 63.6599 5.628C64.7399 5.628 65.3039 6.072 65.6399 6.744V5.76H67.2479V12H65.6759V10.98C65.3399 11.688 64.7759 12.156 63.6599 12.156ZM62.1959 8.892C62.1959 9.84 62.8919 10.692 63.9239 10.692C64.9919 10.692 65.6759 9.876 65.6759 8.904C65.6759 7.932 64.9919 7.092 63.9239 7.092C62.8919 7.092 62.1959 7.92 62.1959 8.892ZM68.2105 12V5.76H69.8065V6.672C70.1305 5.976 70.7545 5.616 71.7145 5.616C73.0585 5.616 74.0905 6.612 74.0905 8.184V12H72.4705V8.58C72.4705 7.5 71.9305 7.032 71.1265 7.032C70.4425 7.032 69.8305 7.5 69.8305 8.58V12H68.2105ZM77.8396 12.156C76.1236 12.156 74.7556 10.704 74.7556 8.904C74.7556 7.104 76.1236 5.628 77.8396 5.628C78.9196 5.628 79.4836 6.072 79.8196 6.744V5.76H81.4276V12H79.8556V10.98C79.5196 11.688 78.9556 12.156 77.8396 12.156ZM76.3756 8.892C76.3756 9.84 77.0716 10.692 78.1036 10.692C79.1716 10.692 79.8556 9.876 79.8556 8.904C79.8556 7.932 79.1716 7.092 78.1036 7.092C77.0716 7.092 76.3756 7.92 76.3756 8.892ZM82.3902 12V5.76H83.9862V6.672C84.3102 5.976 84.9342 5.616 85.8942 5.616C87.2382 5.616 88.2702 6.612 88.2702 8.184V12H86.6502V8.58C86.6502 7.5 86.1102 7.032 85.3062 7.032C84.6222 7.032 84.0102 7.5 84.0102 8.58V12H82.3902ZM92.0193 12.156C90.3033 12.156 88.9353 10.704 88.9353 8.904C88.9353 7.104 90.3033 5.628 92.0193 5.628C93.0993 5.628 93.6633 6.072 93.9993 6.744V5.76H95.6073V12H94.0353V10.98C93.6993 11.688 93.1353 12.156 92.0193 12.156ZM90.5553 8.892C90.5553 9.84 91.2513 10.692 92.2833 10.692C93.3513 10.692 94.0353 9.876 94.0353 8.904C94.0353 7.932 93.3513 7.092 92.2833 7.092C91.2513 7.092 90.5553 7.92 90.5553 8.892Z" fill="white"/>
</svg>
